<svg xmlns="http://www.w3.org/2000/svg" xmlns:xlink="http://www.w3.org/1999/xlink" width="367" height="165.144" viewBox="0 0 367 165.144"><defs><linearGradient id="a" x1="0.991" y1="0.024" x2="0" y2="0.98" gradientUnits="objectBoundingBox"><stop offset="0" stop-color="#26a69a"/><stop offset="1" stop-color="#009688"/></linearGradient></defs><g transform="translate(-83 -96)"><rect width="367" height="165" rx="8" transform="translate(83 96)" fill="url(#a)"/><g transform="translate(359 102)" fill="none"><path d="M0,0,77,77H0Z" stroke="none"/><path d="M 8 19.3137092590332 L 8 69 L 57.6862907409668 69 L 8 19.3137092590332 M 0 0 L 77 77 L 0 77 L 0 0 Z" stroke="none" fill="rgba(255,255,255,0.1)"/></g><path d="M0,0,42.195,42.195H0Z" transform="matrix(-0.105, -0.995, 0.995, -0.105, 391.126, 243.09)" fill="rgba(255,255,255,0.1)"/><g transform="translate(347.464 223.63) rotate(161)" fill="none"><path d="M0,0,115.227,115.227H0Z" stroke="none"/><path d="M 12 28.97057342529297 L 12 103.2273635864258 L 86.25679016113281 103.2273635864258 L 12 28.97057342529297 M 0 0 L 115.2273635864258 115.2273635864258 L 0 115.2273635864258 L 0 0 Z" stroke="none" fill="rgba(255,255,255,0.1)"/></g></g></svg>