<svg id="a1a4a747-966c-40c1-8b1e-379ad2323333" xmlns="http://www.w3.org/2000/svg" viewBox="0 0 1034.75 521.13"><defs><style>.cls-1{fill:#f2f2f2;}.cls-2{fill:#36334a;}.cls-3{opacity:0.1;}.cls-3,.cls-6,.cls-7{isolation:isolate;}.cls-4{fill:#3f3d56;}.cls-5,.cls-7{fill:#6c63ff;}.cls-6,.cls-7{opacity:0.2;}.cls-8{fill:#ff6584;}.cls-9{fill:#fbbebe;}.cls-10{fill:#696880;}.cls-11{fill:none;stroke:#3f3d56;stroke-miterlimit:10;stroke-width:4px;}.cls-12{fill:#656380;}</style></defs><title>default_profile_cover</title><path class="cls-1" d="M663.9,73.78H535.55V46a6.64,6.64,0,0,0-6.64-6.64H491.22V9.81A4.18,4.18,0,0,0,487,5.63H438.49a4.18,4.18,0,0,0-4.18,4.18V39.39H390A6.64,6.64,0,0,0,383.36,46h0V73.79H261a1.35,1.35,0,0,0-1.34,1.35V443.65A1.35,1.35,0,0,0,261,445h81.34a1.35,1.35,0,0,0,1.35-1.35V394.07a1.36,1.36,0,0,1,1.35-1.35h34.36a1.36,1.36,0,0,1,1.35,1.35v49.58a1.35,1.35,0,0,0,1.34,1.35H542.79a1.36,1.36,0,0,0,1.35-1.35V394.07a1.35,1.35,0,0,1,1.34-1.35h34.36a1.35,1.35,0,0,1,1.35,1.35v49.58a1.36,1.36,0,0,0,1.35,1.35h81.34a1.36,1.36,0,0,0,1.35-1.35V75.13A1.36,1.36,0,0,0,663.9,73.78ZM329.1,375.5a1.34,1.34,0,0,1-1.34,1.34H277.52a1.34,1.34,0,0,1-1.35-1.33h0V358.39a1.35,1.35,0,0,1,1.35-1.35h50.27a1.35,1.35,0,0,1,1.34,1.35Zm0-44.34a1.34,1.34,0,0,1-1.33,1.35H277.52a1.34,1.34,0,0,1-1.35-1.33s0,0,0,0V314a1.34,1.34,0,0,1,1.33-1.35h50.29a1.34,1.34,0,0,1,1.34,1.34h0Zm0-44.33a1.35,1.35,0,0,1-1.34,1.35H277.52a1.35,1.35,0,0,1-1.35-1.35h0V269.67a1.35,1.35,0,0,1,1.35-1.35h50.27a1.35,1.35,0,0,1,1.34,1.35Zm0-44.34a1.34,1.34,0,0,1-1.33,1.35H277.52a1.34,1.34,0,0,1-1.35-1.33s0,0,0,0v-17.1A1.34,1.34,0,0,1,277.5,224h50.29a1.34,1.34,0,0,1,1.34,1.34h0Zm0-44.33a1.35,1.35,0,0,1-1.34,1.35H277.52a1.35,1.35,0,0,1-1.35-1.35h0V181a1.34,1.34,0,0,1,1.34-1.34h50.28a1.34,1.34,0,0,1,1.34,1.34Zm0-44.33a1.34,1.34,0,0,1-1.34,1.34H277.52a1.34,1.34,0,0,1-1.35-1.33h0V136.67a1.35,1.35,0,0,1,1.35-1.35h50.27a1.35,1.35,0,0,1,1.34,1.35Zm0-44.34a1.34,1.34,0,0,1-1.33,1.35H277.52a1.34,1.34,0,0,1-1.35-1.33s0,0,0,0V92.39A1.34,1.34,0,0,1,277.5,91h50.29a1.34,1.34,0,0,1,1.34,1.34h0Zm119.11,266a1.34,1.34,0,0,1-1.34,1.34H396.62a1.35,1.35,0,0,1-1.35-1.34v-17.1a1.36,1.36,0,0,1,1.35-1.35h50.24a1.35,1.35,0,0,1,1.35,1.35Zm0-44.34a1.34,1.34,0,0,1-1.33,1.35H396.62a1.35,1.35,0,0,1-1.35-1.35V314a1.35,1.35,0,0,1,1.35-1.35h50.24a1.34,1.34,0,0,1,1.35,1.33s0,0,0,0Zm0-44.33a1.35,1.35,0,0,1-1.35,1.35H396.62a1.36,1.36,0,0,1-1.35-1.35V269.67a1.36,1.36,0,0,1,1.35-1.35h50.24a1.35,1.35,0,0,1,1.35,1.35Zm0-44.34a1.34,1.34,0,0,1-1.33,1.35H396.62a1.35,1.35,0,0,1-1.35-1.35h0V225.39a1.35,1.35,0,0,1,1.35-1.35h50.24a1.34,1.34,0,0,1,1.35,1.33s0,0,0,0Zm0-44.33a1.35,1.35,0,0,1-1.35,1.35H396.62a1.36,1.36,0,0,1-1.35-1.35V181a1.35,1.35,0,0,1,1.35-1.34h50.24a1.34,1.34,0,0,1,1.35,1.33h0Zm0-44.33a1.34,1.34,0,0,1-1.34,1.34H396.62a1.35,1.35,0,0,1-1.35-1.34V136.67a1.36,1.36,0,0,1,1.35-1.35h50.24a1.35,1.35,0,0,1,1.35,1.35Zm0-44.34a1.34,1.34,0,0,1-1.33,1.35H396.62a1.35,1.35,0,0,1-1.35-1.35h0V92.39A1.35,1.35,0,0,1,396.62,91h50.24a1.34,1.34,0,0,1,1.35,1.33s0,0,0,0Zm81.39,266a1.34,1.34,0,0,1-1.34,1.34H478a1.35,1.35,0,0,1-1.35-1.34V358.39A1.36,1.36,0,0,1,478,357h50.24a1.35,1.35,0,0,1,1.35,1.35Zm0-44.34a1.34,1.34,0,0,1-1.33,1.35H478a1.35,1.35,0,0,1-1.35-1.35V314a1.35,1.35,0,0,1,1.35-1.35h50.24A1.34,1.34,0,0,1,529.6,314s0,0,0,0Zm0-44.33a1.35,1.35,0,0,1-1.35,1.35H478a1.36,1.36,0,0,1-1.35-1.35V269.67a1.36,1.36,0,0,1,1.35-1.35h50.24a1.35,1.35,0,0,1,1.35,1.35Zm0-44.34a1.34,1.34,0,0,1-1.33,1.35H478a1.35,1.35,0,0,1-1.35-1.35V225.39A1.35,1.35,0,0,1,478,224h50.24a1.34,1.34,0,0,1,1.35,1.33s0,0,0,0Zm0-44.33a1.35,1.35,0,0,1-1.35,1.35H478a1.36,1.36,0,0,1-1.35-1.35V181a1.35,1.35,0,0,1,1.35-1.34h50.24A1.34,1.34,0,0,1,529.6,181h0Zm0-44.33a1.34,1.34,0,0,1-1.34,1.34H478a1.35,1.35,0,0,1-1.35-1.34V136.67a1.36,1.36,0,0,1,1.35-1.35h50.24a1.35,1.35,0,0,1,1.35,1.35Zm0-44.34a1.34,1.34,0,0,1-1.33,1.35H478a1.35,1.35,0,0,1-1.35-1.35V92.39A1.35,1.35,0,0,1,478,91h50.24a1.34,1.34,0,0,1,1.35,1.33s0,0,0,0Zm119.11,266a1.35,1.35,0,0,1-1.35,1.34H597.12a1.34,1.34,0,0,1-1.35-1.33h0V358.39a1.35,1.35,0,0,1,1.35-1.35h50.24a1.36,1.36,0,0,1,1.35,1.35Zm0-44.34a1.35,1.35,0,0,1-1.35,1.35H597.12a1.34,1.34,0,0,1-1.35-1.33s0,0,0,0V314a1.34,1.34,0,0,1,1.33-1.35h50.26a1.35,1.35,0,0,1,1.35,1.35Zm0-44.33a1.36,1.36,0,0,1-1.35,1.35H597.12a1.35,1.35,0,0,1-1.35-1.35V269.67a1.35,1.35,0,0,1,1.35-1.35h50.24a1.36,1.36,0,0,1,1.35,1.35Zm0-44.34a1.35,1.35,0,0,1-1.35,1.35H597.12a1.34,1.34,0,0,1-1.33-1.32v-17.1a1.34,1.34,0,0,1,1.33-1.35h50.26a1.35,1.35,0,0,1,1.35,1.35Zm0-44.33a1.36,1.36,0,0,1-1.35,1.35H597.12a1.35,1.35,0,0,1-1.35-1.35V181a1.34,1.34,0,0,1,1.34-1.34h50.25a1.35,1.35,0,0,1,1.35,1.34Zm0-44.33a1.35,1.35,0,0,1-1.35,1.34H597.12a1.34,1.34,0,0,1-1.35-1.33h0V136.67a1.35,1.35,0,0,1,1.35-1.35h50.24a1.36,1.36,0,0,1,1.35,1.35Zm0-44.34a1.35,1.35,0,0,1-1.35,1.35H597.12a1.34,1.34,0,0,1-1.33-1.32V92.39A1.34,1.34,0,0,1,597.12,91h50.26a1.35,1.35,0,0,1,1.35,1.35Z" transform="translate(-7.38 -4.74)"/><path class="cls-2" d="M954.63,388.37c0,1.72,0,3.44-.11,5.14a121.57,121.57,0,0,1-2.38,19.69c-6.57,32.11-25.54,57.07-49.37,64.44a49.29,49.29,0,0,1-14.64,2.23c-36.73,0-66.5-41-66.5-91.5s29.77-91.5,66.5-91.5c34.45,0,62.79,36.06,66.16,82.25C954.52,382.16,954.63,385.25,954.63,388.37Z" transform="translate(-7.38 -4.74)"/><path class="cls-3" d="M954.52,393.52a121.57,121.57,0,0,1-2.38,19.69c-6.57,32.11-25.54,57.07-49.37,64.44-18.45-8.49-32.14-40.31-32.14-78.27,0-44.46,18.8-80.5,42-80.5,19.47,0,35.85,25.42,40.6,59.91C953.89,383.52,954.32,388.46,954.52,393.52Z" transform="translate(-7.38 -4.74)"/><path class="cls-4" d="M620.63,185.87s180-37,275-3c0,0,14,7,0,19,0,0,13.24,14-9.88,19l-91.85,5.65L620.63,208.87Z" transform="translate(-7.38 -4.74)"/><path class="cls-3" d="M652.13,190.52s154.11-31.68,235.45-2.57c0,0,12,6,0,16.27,0,0,11.33,12-8.46,16.27l-78.64,4.83L652.13,210.23Z" transform="translate(-7.38 -4.74)"/><path class="cls-5" d="M827.63,245.87l-12-24s5.26-24.28-37.5-31.42c-2.37-10.59-13.11-18.58-26-18.58-12.58,0-23.1,7.6-25.82,17.8-6.14.53-12.68,1.25-19.68,2.2l-9.78,52.44-1.22-2.44s6.21-28.68-49.76-32.87a20.82,20.82,0,0,0,4.76-13.13c0-12.71-11.87-23-26.5-23s-26.5,10.29-26.5,23a21,21,0,0,0,5.56,14.08q-7.85.75-16.56,1.92l-11,59,51,7,81-12-7.17-14.35,46.17,6.34Z" transform="translate(-7.38 -4.74)"/><path class="cls-6" d="M827.63,245.87l-12-24s5.26-24.28-37.5-31.42c-2.37-10.59-13.11-18.58-26-18.58-12.58,0-23.1,7.6-25.82,17.8-6.14.53-12.68,1.25-19.68,2.2l-9.78,52.44-1.22-2.44s6.21-28.68-49.76-32.87a20.82,20.82,0,0,0,4.76-13.13c0-12.71-11.87-23-26.5-23s-26.5,10.29-26.5,23a21,21,0,0,0,5.56,14.08q-7.85.75-16.56,1.92l-11,59,51,7,81-12-7.17-14.35,46.17,6.34Z" transform="translate(-7.38 -4.74)"/><path class="cls-5" d="M655.61,192.75s-8-44.88,29-45.88,25,65,25,65,28,6,30,17-97,14-97,14Z" transform="translate(-7.38 -4.74)"/><path class="cls-2" d="M590.63,429.87c0,53-39.4,96-88,96s-88-43-88-96,39.89-104.5,88.5-104.5S590.63,376.85,590.63,429.87Z" transform="translate(-7.38 -4.74)"/><ellipse class="cls-3" cx="495.25" cy="429.13" rx="70" ry="80.99"/><ellipse class="cls-2" cx="108.25" cy="416.12" rx="88" ry="96"/><path class="cls-2" d="M265.63,191.87s-41,2-39,24,35,6,35,6Z" transform="translate(-7.38 -4.74)"/><path class="cls-4" d="M606.75,228.52l16.88-112.65s4-14-50-14c0,0-173-11-217,7,0,0-51,19-122,117C234.63,225.87,599.75,234.52,606.75,228.52Z" transform="translate(-7.38 -4.74)"/><path class="cls-2" d="M600.63,110.87l-31,123-19.44-.47-92-2.24-205.19-5c-.57-9.72,96.6-110.29,96.6-110.29Z" transform="translate(-7.38 -4.74)"/><path class="cls-7" d="M458.22,231.16l8.38-32.4s-8-44.89,29-45.89,25,65,25,65,25.5,5.47,29.56,15.53Z" transform="translate(-7.38 -4.74)"/><path class="cls-4" d="M955.13,381.37c-6-58-43.5-70.5-43.5-70.5-36-2-60,135-60,135l-277,25s9.5-116.5-57.5-135.5-84.5,117.5-87.5,136.5-404-2-415-10-7-85-4-91,11-33,11-33c0-6.44,3.08-14.58,5.64-20.23,1.8-4,3.36-6.77,3.36-6.77,8.69-49.28,53.81-61.21,56.84-62h.16c12-12,123-20,123-20l42-8,341.47,6.71,14.53.29,173.6-8.35,117.4-5.65c27,0,41,68,41,68C965.63,341.87,955.13,381.37,955.13,381.37Z" transform="translate(-7.38 -4.74)"/><ellipse class="cls-3" cx="380.14" cy="292.58" rx="51.48" ry="32.23" transform="translate(-89.12 158.32) rotate(-21.92)"/><ellipse class="cls-1" cx="378.14" cy="288.57" rx="51.48" ry="32.23" transform="translate(-87.77 157.29) rotate(-21.92)"/><path class="cls-3" d="M89.47,250.91c-.51,11-5.44,24.88-14.31,38.25-14.27,21.52-33.84,34.19-45.89,30.48,1.8-4,3.36-6.77,3.36-6.77C41.32,263.59,86.44,251.66,89.47,250.91Z" transform="translate(-7.38 -4.74)"/><path class="cls-1" d="M86.47,248.91c-.51,11-5.44,24.88-14.31,38.25-14.27,21.52-33.84,34.19-45.89,30.48,1.8-4,3.36-6.77,3.36-6.77C38.32,261.59,83.44,249.66,86.47,248.91Z" transform="translate(-7.38 -4.74)"/><polygon class="cls-2" points="219.25 274.12 140.25 274.12 136.25 263.12 232.25 263.12 219.25 274.12"/><rect class="cls-2" x="71.25" y="355.12" width="130" height="38"/><circle class="cls-3" cx="341.25" cy="412.12" r="18"/><circle class="cls-1" cx="339.25" cy="409.12" r="18"/><ellipse class="cls-3" cx="14.25" cy="398.12" rx="9" ry="19"/><ellipse class="cls-1" cx="11.25" cy="397.12" rx="9" ry="19"/><path class="cls-2" d="M811.63,321.87c-11,34-12,87-12,87l-4,14-195,22s1-98,4-144c2.11-32.45-5.72-59.92-10.53-73.29l14.53.29,173.6-8.35C811.23,239.85,821.5,291.34,811.63,321.87Z" transform="translate(-7.38 -4.74)"/><path class="cls-1" d="M767.17,260.57a4.91,4.91,0,0,0-4.57,5.23q0,.23.05.46a3.51,3.51,0,0,0,2,2.61c3.23,1.61,24.73-2,32.88-3.44a5.53,5.53,0,0,0,4.62-4.93c.1-1.42-.42-2.63-2.5-2.63Z" transform="translate(-7.38 -4.74)"/><path class="cls-2" d="M593.63,223.87s5,22,29,15l8-31-16-9Z" transform="translate(-7.38 -4.74)"/><path class="cls-2" d="M623,179.2c11-6.52,28.45-12.22,45.71,1.47a20.4,20.4,0,0,1,5.89,24.54c-5.65,12.23-19.06,25.5-50.37,9.61a20.2,20.2,0,0,1-7.62-6.74l-.16-.24a20.3,20.3,0,0,1,5.74-28.13Z" transform="translate(-7.38 -4.74)"/><circle class="cls-1" cx="495.75" cy="424.62" r="20"/><ellipse class="cls-1" cx="908.75" cy="388.62" rx="11" ry="20"/><rect class="cls-2" x="482.25" y="363.12" width="26" height="35" rx="12" ry="12"/><path class="cls-2" d="M916.13,329.36h0a7,7,0,0,1,7,7v16a12,12,0,0,1-12,12h0a7,7,0,0,1-7-7v-16A12,12,0,0,1,916.13,329.36Z" transform="translate(-7.38 -4.74)"/><path class="cls-2" d="M916.13,457.37h0a12,12,0,0,1-12-12v-11a12,12,0,0,1,12-12h0c6.6,0,6,5.4,6,12v11C922.12,452,922.75,457.37,916.13,457.37Z" transform="translate(-7.38 -4.74)"/><path class="cls-2" d="M886.13,375.36h0a12,12,0,0,1,12,12v15a8,8,0,0,1-8,8h0a12,12,0,0,1-12-12v-15A8,8,0,0,1,886.13,375.36Z" transform="translate(-7.38 -4.74)"/><path class="cls-2" d="M954.63,388.37c0,1.72,0,3.44-.11,5.14a121.57,121.57,0,0,1-2.38,19.69,12.21,12.21,0,0,1-2,.17,12,12,0,0,1-12-12v-11a12,12,0,0,1,12-12,11.71,11.71,0,0,1,3.1.41c.36.1.72.21,1.06.34C954.52,382.16,954.63,385.25,954.63,388.37Z" transform="translate(-7.38 -4.74)"/><rect class="cls-2" x="532.75" y="405.62" width="26" height="35" rx="12" ry="12"/><rect class="cls-2" x="434.75" y="405.62" width="26" height="35" rx="12" ry="12"/><rect class="cls-2" x="482.75" y="457.62" width="26" height="35" rx="12" ry="12"/><path class="cls-8" d="M852.39,25.18a16.42,16.42,0,0,1-1,5.59,16.6,16.6,0,0,1-31.09.44,16.33,16.33,0,0,1-1.14-6,16.6,16.6,0,1,1,33.2,0Z" transform="translate(-7.38 -4.74)"/><path class="cls-8" d="M822.53,29.32A16.6,16.6,0,0,1,829,6.75h0a16.43,16.43,0,0,1,6-2,16.6,16.6,0,1,0,1.4,33.07A16.59,16.59,0,0,1,822.53,29.32Z" transform="translate(-7.38 -4.74)"/><rect class="cls-8" x="807.66" y="43.56" width="44.47" height="69.37"/><rect class="cls-3" x="808.66" y="41.56" width="44.47" height="69.37"/><path class="cls-9" d="M744.75,300s-4.74,13-16,14.82S711,319.52,711,319.52l26.68,17.19,14.23-1.78s1.77-18.38,7.7-22.53S744.75,300,744.75,300Z" transform="translate(-7.38 -4.74)"/><path class="cls-9" d="M937.47,300s4.74,13,16,14.82,17.78,4.75,17.78,4.75l-26.68,17.19L930.34,335s-1.77-18.38-7.7-22.53S937.47,300,937.47,300Z" transform="translate(-7.38 -4.74)"/><path class="cls-10" d="M807.63,185s-7.12,3.56-9.49,10.67c0,0-13,4.15-20.16,15.42,0,0-8.89,9.48-10.08,14.23s-14.82,33.24-14.82,33.24S739.45,303,732.33,307.73c0,0,22.53-4.75,26.68,17.78,0,0,5.34,0,11.27-20.75s20.15-46.24,20.15-46.24,4.75-17.79,8.9-20.75,10.67-16.6,16.6-13,45.06-.59,45.06-.59,23.12,10.67,23.71,17.79,4.75,7.7,5.34,13.63,22.53,52.77,22.53,52.77,4.15,13,5.33,16c0,0,13-31.42,30.24-13.64,0,0-.59-11.86-5.93-19s-28.46-62.85-28.46-62.85-2.37-8.3-4.74-10.67-20.75-21.34-27.26-21.34c0,0-3.56-8.9-7.71-10.08Z" transform="translate(-7.38 -4.74)"/><path class="cls-10" d="M754.27,330.81A28.89,28.89,0,0,1,726,327a56.27,56.27,0,0,0-12.59-7.29c-6.28-2.54-13.81-4.43-16.1-.17-4.15,7.7,50.4,26.68,50.4,26.68S754.86,342.07,754.27,330.81Z" transform="translate(-7.38 -4.74)"/><path class="cls-10" d="M928,330.81a28.89,28.89,0,0,0,28.23-3.8,56.27,56.27,0,0,1,12.59-7.29c6.28-2.54,13.81-4.43,16.1-.17,4.15,7.7-50.4,26.68-50.4,26.68S927.39,342.07,928,330.81Z" transform="translate(-7.38 -4.74)"/><path class="cls-9" d="M827,87.44c-.23,2.06-.9,4.29-2.66,5.39-1.44.9-3.26.82-4.92,1.17a11.44,11.44,0,0,0-7.83,6.76,17.52,17.52,0,0,0-.74,10.55,38.86,38.86,0,0,0,1.51,5.07c1.75,4.92,3.85,9.79,7.09,13.89a59,59,0,0,0,9.3,8.76c2.11,1.72,4.29,3.48,6.89,4.29a21.36,21.36,0,0,0,5.41.71c2.25.11,4.64.18,6.59-.94,3-1.73,3.9-5.56,5.52-8.62,1.39-2.61,3.45-4.81,4.74-7.47a29.78,29.78,0,0,0,2-6.51l2.77-12.31c1-4.46,1.92-9.5-.6-13.33a2.1,2.1,0,0,0-.74-.77,2.75,2.75,0,0,0-1.51-.16,16.32,16.32,0,0,1-9.15-2.09,3.62,3.62,0,0,1-1.15-.9,4.53,4.53,0,0,1-.71-2.11,22.29,22.29,0,0,0-1.28-4.46,3,3,0,0,0-.87-1.33,3.11,3.11,0,0,0-1.4-.47,114.49,114.49,0,0,0-12.93-1.36c-1.43-.06-3.57-.63-4.54.62S827.17,85.94,827,87.44Z" transform="translate(-7.38 -4.74)"/><path class="cls-3" d="M827,87.44c-.23,2.06-.9,4.29-2.66,5.39-1.44.9-3.26.82-4.92,1.17a11.44,11.44,0,0,0-7.83,6.76,17.52,17.52,0,0,0-.74,10.55,38.86,38.86,0,0,0,1.51,5.07c1.75,4.92,3.85,9.79,7.09,13.89a59,59,0,0,0,9.3,8.76c2.11,1.72,4.29,3.48,6.89,4.29a21.36,21.36,0,0,0,5.41.71c2.25.11,4.64.18,6.59-.94,3-1.73,3.9-5.56,5.52-8.62,1.39-2.61,3.45-4.81,4.74-7.47a29.78,29.78,0,0,0,2-6.51l2.77-12.31c1-4.46,1.92-9.5-.6-13.33a2.1,2.1,0,0,0-.74-.77,2.75,2.75,0,0,0-1.51-.16,16.32,16.32,0,0,1-9.15-2.09,3.62,3.62,0,0,1-1.15-.9,4.53,4.53,0,0,1-.71-2.11,22.29,22.29,0,0,0-1.28-4.46,3,3,0,0,0-.87-1.33,3.11,3.11,0,0,0-1.4-.47,114.49,114.49,0,0,0-12.93-1.36c-1.43-.06-3.57-.63-4.54.62S827.17,85.94,827,87.44Z" transform="translate(-7.38 -4.74)"/><path class="cls-1" d="M819,94.52a27.43,27.43,0,0,0-7.14-1.13c-5.72-.14-11.83,1.84-15.14,6.51a15.37,15.37,0,0,0-2.29,11.45,23.71,23.71,0,0,0,5.2,10.67,32.07,32.07,0,0,1,4,5.24c1.58,3,1.62,6.58,2,10,1,8.11,4.46,15.75,5.84,23.81s.18,17.42-6.19,22.56c-1.07.86-2.36,1.76-2.45,3.13-.15,2.19,2.7,3.13,4.89,3.33,6.55.63,13.27,1.24,19.63-.45,2.64-.7,5.17-1.79,7.85-2.29,6.81-1.27,13.65,1.33,20.45,2.59a91.81,91.81,0,0,0,14.91,1.21,8,8,0,0,0,3.44-.45,2.75,2.75,0,0,0,1.74-2.74,4.64,4.64,0,0,0-1.18-2c-3.44-4.26-4.49-9.9-5.43-15.29L866,152.52c-1.69-9.68-3.26-20.19,1.32-28.89,3.3-6.25,9.36-10.65,12.84-16.8a9.79,9.79,0,0,0,1.58-6.31c-.52-3.09-3.31-5.3-6.17-6.6a23.21,23.21,0,0,0-17.39-.63c.1,4.33-1,8.71-1.72,13l-1.21,7a89.12,89.12,0,0,1-2.7,12.2,13.22,13.22,0,0,1-2.17,4.42,11.43,11.43,0,0,1-3.83,2.79A22.76,22.76,0,0,1,836.41,135a13.32,13.32,0,0,1-4.48-.68c-2.38-.86-4.31-2.63-6.17-4.35a10.08,10.08,0,0,1-1.63-1.76,10.61,10.61,0,0,1-1.11-2.67,54.29,54.29,0,0,1-1.9-7.48c-.31-1.94-.4-3.91-.54-5.87C820.14,106.52,820.15,100.09,819,94.52Z" transform="translate(-7.38 -4.74)"/><path class="cls-9" d="M813,209.27s-2.37,31.42,12.45,36.76,1.78-26.09,1.78-26.09l-4.74-9.49Z" transform="translate(-7.38 -4.74)"/><path class="cls-9" d="M863.36,209.27s2.37,31.42-12.45,36.76-1.78-26.09-1.78-26.09l4.74-9.49Z" transform="translate(-7.38 -4.74)"/><path class="cls-3" d="M799.92,104.33,795.18,112s4.15,26.68,4.74,31.42a61.84,61.84,0,0,0,2.37,10.06s.59,14.23.59,19.56,3,14.23,3,14.23a64.53,64.53,0,0,0,3,14.82c2.37,6.53,4.75,14.23,4.75,14.23s3-8.3,14.82,4.15a7.19,7.19,0,0,0,0-10.08s-3.56-16-3.56-24.3-6.52-48-6.52-48S814.15,93.06,799.92,104.33Z" transform="translate(-7.38 -4.74)"/><path class="cls-1" d="M798.75,103.74l-4.74,7.7s4.15,26.68,4.74,31.43a62.25,62.25,0,0,0,2.38,10.07s.62,14.23.62,19.58,3,14.23,3,14.23a64.82,64.82,0,0,0,3,14.82c2.37,6.52,4.74,14.23,4.74,14.23s3-8.3,14.82,4.15a7.18,7.18,0,0,0,0-10.08s-3.56-16-3.56-24.31-6.52-48-6.52-48S813,92.52,798.75,103.74Z" transform="translate(-7.38 -4.74)"/><path class="cls-3" d="M877,99.58l3,3.53s3.5,20.19-4.21,45.68l-2.37,23.13s-4.15,19.56-4.75,24.31-.59,5.33-1.77,7.11a2.28,2.28,0,0,0,0,3l-3.56,13s-5.34-6.52-16,1.78c0,0-3-4.75-.59-8.9s2.37-5.93,1.78-7.11,2.37-7.12,2.37-8.3S855,168.4,855,168.4s1.78-26.68,3.56-35.57c1.09-5.47,1.06-17.67.88-26.25-.19-8.93,10.62-13.78,17-7.49A4.62,4.62,0,0,1,877,99.58Z" transform="translate(-7.38 -4.74)"/><path class="cls-1" d="M878.75,98.4l3,3.53s3.49,20.18-4.21,45.68l-2.37,23.12S871,190.3,870.42,195s-.59,5.34-1.78,7.11a2.31,2.31,0,0,0,0,3l-3.55,13s-5.34-6.52-16,1.78c0,0-3-4.74-.59-8.89s2.37-5.93,1.77-7.12,2.38-7.11,2.38-8.3,4.15-28.46,4.15-28.46,1.78-26.68,3.55-35.57.6-35.57.6-35.57S870.47,89.52,878.75,98.4Z" transform="translate(-7.38 -4.74)"/><circle class="cls-9" cx="831.67" cy="61.64" r="23.72"/><path class="cls-3" d="M851.42,30.77a16.6,16.6,0,0,1-31.09.44c9.25-3.72,18.72-.4,18.72-.4A16.78,16.78,0,0,1,851.42,30.77Z" transform="translate(-7.38 -4.74)"/><path class="cls-8" d="M839,32S793.4,16,804.66,93.66c0,0,10.08,6.52,17.79,2.37,0,0-5.34-54,15.41-51.58s17.2,50.39,17.2,50.39,11.86,3.56,15.41-3S869.29,21.32,839,32Z" transform="translate(-7.38 -4.74)"/><path class="cls-3" d="M837.86,40.89c-14.24-1.63-16.19,23.26-16,39,.18-15.69,2.82-37,16-35.49,14.82,1.69,17.24,26.65,17.42,40.79C855.44,72.27,854,42.74,837.86,40.89Z" transform="translate(-7.38 -4.74)"/><path class="cls-3" d="M804.66,90.1a161.2,161.2,0,0,1-1.77-20.58,152.23,152.23,0,0,0,1.77,24.1s10.08,6.52,17.79,2.37c0,0-.13-1.28-.27-3.43C814.51,96.52,804.66,90.1,804.66,90.1Z" transform="translate(-7.38 -4.74)"/><path class="cls-3" d="M870.47,88.32c-3.31,6.07-13.82,3.41-15.25,3-.07,2.2-.16,3.51-.16,3.51s11.86,3.56,15.41-3c.74-1.35,1.12-5.14,1-10.21C871.37,84.93,871,87.31,870.47,88.32Z" transform="translate(-7.38 -4.74)"/><path class="cls-11" d="M992,472.06c2.74-5.07-.37-11.29-3.94-15.81s-7.93-9.23-7.84-15c.14-8.28,8.93-13.17,16-17.56a77.94,77.94,0,0,0,14.33-11.52,21.21,21.21,0,0,0,4.4-5.89c1.45-3.24,1.41-6.93,1.32-10.48q-.45-17.73-1.75-35.43" transform="translate(-7.38 -4.74)"/><path class="cls-5" d="M1027.86,359.73a12.9,12.9,0,0,0-6.45-10.59l-2.89,5.72.09-6.93a13.08,13.08,0,0,0-4.26-.51,12.92,12.92,0,1,0,13.51,12.31Z" transform="translate(-7.38 -4.74)"/><path class="cls-5" d="M1004.82,447.18a12.92,12.92,0,0,1-24.39-5.3,12.75,12.75,0,0,1,.84-5.25,12.93,12.93,0,0,1,24.18.14l-8.07,6.57,8.87-2.06A12.79,12.79,0,0,1,1004.82,447.18Z" transform="translate(-7.38 -4.74)"/><path class="cls-5" d="M998.44,422.09a12.92,12.92,0,0,1-13.51-12.3h0A12.75,12.75,0,0,1,986,403.9a13,13,0,0,1,8.29-7.16l-.06,5.33,2.92-5.8h0a12.92,12.92,0,0,1,13.5,12.31,12.67,12.67,0,0,1-.55,4.41A12.92,12.92,0,0,1,998.44,422.09Z" transform="translate(-7.38 -4.74)"/><path class="cls-5" d="M1029.81,401.22a12.92,12.92,0,0,1-13.51-12.3h0a12.7,12.7,0,0,1,1.22-6.12,12.91,12.91,0,0,1,17.18-6.17q.42.2.82.42l-2.28,6.25,4.69-4.51a12.91,12.91,0,0,1,4.18,8.92,12.67,12.67,0,0,1-.33,3.56A12.92,12.92,0,0,1,1029.81,401.22Z" transform="translate(-7.38 -4.74)"/><path class="cls-3" d="M1026.13,363.17c-3,.33-5.89,1.25-8.88,1.44s-6.28-.53-8.17-2.86a40.28,40.28,0,0,1-2.39-4.2,9.28,9.28,0,0,0-3.25-3.07,12.77,12.77,0,0,0-1.39,6.45,12.92,12.92,0,0,0,25.54,2.13C1027.1,363.08,1026.61,363.12,1026.13,363.17Z" transform="translate(-7.38 -4.74)"/><path class="cls-3" d="M1029.81,401.22a12.92,12.92,0,0,1-13.51-12.3h0a12.7,12.7,0,0,1,1.22-6.12,9.6,9.6,0,0,1,2.6,2.6c.92,1.39,1.47,3,2.56,4.27,2,2.36,5.45,3.14,8.57,3s6.12-1,9.23-1.31c.43,0,.87-.07,1.3-.08A12.92,12.92,0,0,1,1029.81,401.22Z" transform="translate(-7.38 -4.74)"/><path class="cls-3" d="M998.44,422.09a12.92,12.92,0,0,1-13.51-12.3h0A12.75,12.75,0,0,1,986,403.9a10.65,10.65,0,0,1,2.7,2.62,51,51,0,0,0,2.8,4.36c2.18,2.43,5.85,3.28,9.15,3.21s6.28-.86,9.46-1.1A12.92,12.92,0,0,1,998.44,422.09Z" transform="translate(-7.38 -4.74)"/><path class="cls-3" d="M1004.82,447.18a12.92,12.92,0,0,1-24.39-5.3,12.75,12.75,0,0,1,.84-5.25,13,13,0,0,1,2.83,2.53c1.23,1.5,2,3.2,3.46,4.59,2.64,2.6,6.91,3.67,10.7,3.77A57,57,0,0,0,1004.82,447.18Z" transform="translate(-7.38 -4.74)"/><path class="cls-12" d="M972.56,466.22s10.19-.31,13.27-2.5,15.68-4.8,16.45-1.29,15.32,17.46,3.81,17.55-26.75-1.79-29.82-3.66S972.56,466.22,972.56,466.22Z" transform="translate(-7.38 -4.74)"/><path class="cls-6" d="M1006.29,478.76c-11.51.09-26.75-1.8-29.82-3.66-2.33-1.43-3.26-6.53-3.57-8.89h-.34s.64,8.23,3.71,10.1,18.31,3.75,29.82,3.66c3.32,0,4.47-1.21,4.41-3C1010,478.08,1008.75,478.74,1006.29,478.76Z" transform="translate(-7.38 -4.74)"/></svg>